HIERARCHY
ROOT RootJoint
{
    OFFSET   0.000000   0.000000   0.000000
    CHANNELS 6 Xposition Yposition Zposition Xrotation Yrotation Zrotation
    JOINT pelvis_lowerback
    {
        OFFSET   0.000000   0.093605   0.000000
        CHANNELS 3 Xrotation Yrotation Zrotation
        JOINT lowerback_torso
        {
            OFFSET   0.000000   0.100000   0.000000
            CHANNELS 3 Xrotation Yrotation Zrotation
            JOINT torso_head
            {
                OFFSET   0.000000   0.282350   0.000000
                CHANNELS 3 Xrotation Yrotation Zrotation
                End Site
                {
                    OFFSET   0.000000   0.192650   0.000000
                }
            }
            JOINT rTorso_Clavicle
            {
                OFFSET  -0.001000   0.157500   0.000000
                CHANNELS 3 Xrotation Yrotation Zrotation
                JOINT rShoulder
                {
                    OFFSET  -0.117647   0.000000   0.000000
                    CHANNELS 3 Xrotation Yrotation Zrotation
                    JOINT rElbow
                    {
                        OFFSET  -0.245000   0.000000   0.000000
                        CHANNELS 3 Xrotation Yrotation Zrotation
                        JOINT rWrist
                        {
                            OFFSET  -0.240000   0.000000   0.000000
                            CHANNELS 3 Xrotation Yrotation Zrotation
                            End Site
                            {
                                OFFSET  -0.116353  -0.002500   0.000000
                            }
                        }
                    }
                }
            }
            JOINT lTorso_Clavicle
            {
                OFFSET   0.001000   0.157500   0.000000
                CHANNELS 3 Xrotation Yrotation Zrotation
                JOINT lShoulder
                {
                    OFFSET   0.117647   0.000000   0.000000
                    CHANNELS 3 Xrotation Yrotation Zrotation
                    JOINT lElbow
                    {
                        OFFSET   0.245000   0.000000   0.000000
                        CHANNELS 3 Xrotation Yrotation Zrotation
                        JOINT lWrist
                        {
                            OFFSET   0.240000   0.000000   0.000000
                            CHANNELS 3 Xrotation Yrotation Zrotation
                            End Site
                            {
                                OFFSET   0.116353  -0.002500   0.000000
                            }
                        }
                    }
                }
            }
        }
    }
    JOINT rHip
    {
        OFFSET  -0.100000  -0.051395   0.000000
        CHANNELS 3 Xrotation Yrotation Zrotation
        JOINT rKnee
        {
            OFFSET   0.000000  -0.410000   0.000000
            CHANNELS 3 Xrotation Yrotation Zrotation
            JOINT rAnkle
            {
                OFFSET   0.000000  -0.390000   0.000000
                CHANNELS 3 Xrotation Yrotation Zrotation
                JOINT rToeJoint
                {
                    OFFSET   0.000000  -0.050000   0.130000
                    CHANNELS 3 Xrotation Yrotation Zrotation
                    End Site
                    {
                        OFFSET  -0.010000   0.002000   0.060000
                    }
                }
            }
        }
    }
    JOINT lHip
    {
        OFFSET   0.100000  -0.051395   0.000000
        CHANNELS 3 Xrotation Yrotation Zrotation
        JOINT lKnee
        {
            OFFSET   0.000000  -0.410000   0.000000
            CHANNELS 3 Xrotation Yrotation Zrotation
            JOINT lAnkle
            {
                OFFSET   0.000000  -0.390000   0.000000
                CHANNELS 3 Xrotation Yrotation Zrotation
                JOINT lToeJoint
                {
                    OFFSET   0.000000  -0.050000   0.130000
                    CHANNELS 3 Xrotation Yrotation Zrotation
                    End Site
                    {
                        OFFSET   0.010000   0.002000   0.060000
                    }
                }
            }
        }
    }
}
MOTION
Frames: 11
Frame Time:   0.008333
 -2.484868   0.836732   4.089584  -3.078208  31.595750   3.067455  14.565666  -2.032108  -0.552324   2.382778  -3.573588   1.639863  -0.871968  -6.933116   0.721951  -1.827741   6.966259  -0.531302 -15.998226   1.081947  46.338384 -179.973166  81.108125 179.974232  -2.293543   4.029195   2.044980  -2.974058  -8.685343   2.933722 -25.430558 -24.983935 -61.358355 -179.999236 -59.541993 -179.999943   0.226709  -8.011007   2.451068 -26.175399  -8.350510 -21.993780  45.231815  -0.000172   0.000966 -16.830129  -6.547237   0.211109   1.355340   0.001214   0.000638  -9.420218   0.130139  26.582187  27.154144   0.001353   0.000582  -3.551867  -4.109639  -5.229135 -17.379075   0.000657  -0.007293
 -2.482120   0.836672   4.088955  -3.120475  31.525310   2.932993  14.469657  -2.122531  -0.614591   2.365258  -3.774181   1.779927  -0.908233  -6.803055   0.752525  -1.856982   6.555770  -0.246363 -16.289047   0.413433  46.217038 -179.950266  80.719500 179.950226  -2.348282   3.760789   2.284784  -2.989786  -8.708568   2.963766 -25.634760 -25.119978 -61.488582 -179.999867 -59.347310 179.999284   0.236532  -8.014537   2.398021 -25.987318  -8.455313 -22.029413  44.937100  -0.000472   0.001265 -16.638752  -6.563868   0.279810   1.341834   0.000958   0.000530  -9.437759   0.140328  26.591448  27.571212   0.001587   0.000185  -4.414307  -3.997995  -5.070735 -16.407504  -0.000014  -0.005970
 -2.479157   0.836672   4.088206  -3.125410  31.431946   2.773272  14.361986  -2.222805  -0.671684   2.320085  -3.986739   1.907772  -0.929013  -6.676241   0.790795  -1.939033   6.151244  -0.039323 -16.615838  -0.215702  46.056422 -179.933145  80.327251 179.931700  -2.405399   3.648328   2.335720  -3.016365  -8.750355   2.996248 -25.842627 -25.259518 -61.619180 179.999584 -59.160236 179.998594   0.244991  -8.051180   2.316921 -25.813541  -8.550233 -22.061988  44.598140  -0.000790   0.001615 -16.468133  -6.580025   0.343394   1.343221   0.000768   0.000422  -9.457508   0.163282  26.589896  27.952964   0.001754  -0.000210  -5.234246  -3.875138  -4.919068 -15.668614  -0.000260  -0.004906
 -2.476019   0.836718   4.087388  -3.102829  31.310653   2.597649  14.241627  -2.332194  -0.735405   2.253328  -4.202687   2.014853  -0.945887  -6.557906   0.829788  -2.040134   5.767516   0.119171 -16.946786  -0.801912  45.880320 -179.922641  79.951862 179.919817  -2.462569   3.611468   2.286014  -3.047996  -8.798882   3.030623 -26.045130 -25.394599 -61.743247 179.999183 -58.984606 179.998070   0.253126  -8.100320   2.223821 -25.651827  -8.633620 -22.093238  44.227024  -0.001099   0.002005 -16.319906  -6.595046   0.399295   1.344166   0.000616   0.000336  -9.469859   0.192279  26.581652  28.306813   0.001834  -0.000614  -6.011913  -3.761199  -4.779501 -15.129227  -0.000264  -0.004177
 -2.472739   0.836790   4.086526  -3.059849  31.161728   2.409978  14.110761  -2.445805  -0.810255   2.170928  -4.416526   2.101102  -0.962065  -6.447909   0.866781  -2.146706   5.405493   0.247117 -17.269677  -1.348074  45.700315 -179.917402  79.596854 179.913369  -2.518374   3.609632   2.188723  -3.082282  -8.849908   3.065783 -26.239855 -25.523210 -61.860091 179.998933 -58.820357 179.997717   0.260904  -8.153758   2.127835 -25.500471  -8.707960 -22.123240  43.831247  -0.001385   0.002424 -16.191537  -6.609091   0.448406   1.344387   0.000493   0.000268  -9.472647   0.224120  26.569898  28.640905   0.001847  -0.001015  -6.750276  -3.658992  -4.652558 -14.773979  -0.000174  -0.003622
 -2.469345   0.836875   4.085629  -3.001475  30.987877   2.212471  13.972287  -2.560132  -0.897479   2.077631  -4.625042   2.168148  -0.978425  -6.345653   0.900811  -2.252506   5.064460   0.354613 -17.579173  -1.857171  45.522362 -179.916043  79.262658 179.911021  -2.572310   3.626069   2.069007  -3.117898  -8.901137   3.101022 -26.425834 -25.644656 -61.969726 179.998812 -58.666798 179.997515   0.268362  -8.209229   2.033581 -25.358588  -8.775550 -22.151806  43.416807  -0.001642   0.002858 -16.080787  -6.622404   0.491687   1.344090   0.000394   0.000215  -9.466117   0.257356  26.556740  28.960087   0.001812  -0.001399  -7.452502  -3.568074  -4.537938 -14.594232  -0.000088  -0.003094
 -2.465860   0.836957   4.084699  -2.931243  30.792983   2.006727  13.829037  -2.672967  -0.996852   1.977079  -4.826374   2.217847  -0.995129  -6.250564   0.931601  -2.354619   4.743487   0.447530 -17.873078  -2.331872  45.349566 -179.917423  78.948721 179.911637  -2.624234   3.653325   1.939329  -3.153967  -8.951240   3.135892 -26.602641 -25.758767 -62.072333 179.998794 -58.523201 179.997435   0.275545  -8.266025   1.943229 -25.225726  -8.837935 -22.178756  42.988727  -0.001868   0.003289 -15.985697  -6.635165   0.529941   1.343415   0.000314   0.000173  -9.451483   0.291093  26.543388  29.266793   0.001746  -0.001755  -8.121660  -3.487366  -4.435159 -14.582808  -0.000067  -0.002490
 -2.461953   0.836960   4.083565  -2.960973  30.584745   1.897533  13.751711  -2.771458  -1.093202   1.919896  -5.040433   2.270124  -0.967145  -6.211942   1.001287  -2.524339   4.432705   0.456266 -18.530077  -2.869180  45.056535 -179.905626  78.470795 179.897616  -2.664490   3.420518   2.091158  -3.214254  -9.066159   3.244225 -26.865189 -25.921205 -62.224798 179.998790 -58.463378 179.997581   0.275166  -8.352301   1.916208 -24.967817  -8.831993 -22.265663  42.382837  -0.002601   0.003941 -15.137682  -6.517724   0.763145   1.233706   0.000175   0.000214  -9.366209   0.380389  26.427068  29.628691   0.001968  -0.002136  -9.035543  -3.286477  -4.176845 -13.999459  -0.000398  -0.002280
 -2.457800   0.836891   4.082378  -2.983640  30.378351   1.791398  13.656866  -2.881220  -1.173202   1.842049  -5.261917   2.314871  -0.925688  -6.177101   1.076698  -2.748150   4.147517   0.394271 -19.212287  -3.353817  44.732621 -179.898104  77.997895 179.887986  -2.705298   3.328684   2.082137  -3.284052  -9.198467   3.356312 -27.128344 -26.085697 -62.372393 179.998795 -58.412838 179.997736   0.272191  -8.412713   1.855073 -24.707698  -8.805288 -22.366167  41.777884  -0.003311   0.004385 -14.335432  -6.399785   0.975642   1.189526   0.000097   0.000196  -9.282771   0.482880  26.291316  29.986629   0.002180  -0.002430  -9.914974  -3.090569  -3.937148 -13.754105  -0.000386  -0.001907
 -2.453608   0.836924   4.081236  -2.990574  30.167662   1.701648  13.546480  -2.993132  -1.283995   1.742283  -5.478447   2.341874  -0.887185  -6.145328   1.152423  -2.981813   3.885846   0.315969 -19.875854  -3.795996  44.411619 -179.895597  77.546153 179.883852  -2.746289   3.321560   1.990855  -3.353287  -9.331072   3.462923 -27.378574 -26.243326 -62.509181 179.998840 -58.367017 179.997914   0.268726  -8.470873   1.765721 -24.442240  -8.760873 -22.477510  41.149097  -0.003958   0.004697 -13.599731  -6.284357   1.161528   1.152446   0.000036   0.000175  -9.209063   0.569880  26.131416  30.379039   0.002363  -0.002810 -10.860678  -2.931294  -3.767794 -12.934798   0.000014  -0.002094
 -2.449365   0.837152   4.079971  -2.958084  29.926223   1.577976  13.426456  -3.091949  -1.377171   1.623106  -5.678375   2.357898  -0.856395  -6.115399   1.222209  -3.216589   3.650328   0.225006 -20.513951  -4.198368  44.096701 -179.896980  77.120527 179.884142  -2.786620   3.355092   1.863239  -3.420257  -9.460832   3.558408 -27.617116 -26.392152 -62.641388 179.998900 -58.324276 179.998080   0.266259  -8.531412   1.676607 -24.178855  -8.696038 -22.552634  40.503899  -0.004527   0.004899 -13.236833  -6.141371   1.363737   1.144531   0.000024   0.000140  -9.149993   0.648621  25.973065  30.740955   0.002432  -0.003194 -11.719321  -2.785751  -3.597922 -12.243817   0.000389  -0.002457
